M48
;Layer_Color=9474304
;FILE_FORMAT=4:4
METRIC,LZ
;TYPE=PLATED
T1F00S00C0.7620
T2F00S00C0.8500
T3F00S00C0.8890
T4F00S00C0.9000
T5F00S00C3.4000
%
T01
X0049403Y0086995
X0068453Y0091186
X0072771Y0087757
X0075692Y0093091
X0077216Y0082169
X0079248Y0105664
X0085344Y0101148
Y0097028
X0092456Y009748
Y01016
T02
X0054864Y0072644
X0065024
Y0076454
X0068072
X0037465Y0106172
Y0116332
X0046228Y0118745
X0048768Y0118872
Y0108712
X0046228Y0108585
Y0102997
Y0092837
X0051816Y0088265
X0056388Y00889
X006096Y0088773
X0065024Y0086614
X0068072
X0074676Y0083566
X0077216Y0094488
Y0104648
X0075184
Y0114808
X0073152Y0116332
X0062992
X0057912Y0117348
Y0107188
X0056388Y009906
X006096Y0098933
X0051816Y0098425
X008128Y0094488
X00889
Y0104648
X008128
X0084836Y0083566
T03
X0044196Y0067564
Y0070104
Y0072644
Y0075184
Y0077724
X0051816
Y0075184
Y0072644
Y0070104
Y0067564
X0071628Y0072898
Y0075438
Y0077978
X0079248
Y0075438
Y0072898
Y0080518
X0071628
X007366Y0097028
Y0099568
X0069596Y0106172
Y0108712
X0061976
Y0106172
Y0103632
X0051816Y0104013
Y0106553
X0052324Y0110744
X0054864
X0051816Y0101473
X0041656Y0104521
Y0107061
X0044196Y0085344
Y0082804
Y0080264
X0051816
Y0082804
Y0085344
X0064516Y0092837
Y0095377
X007874Y0108204
Y0110744
Y0113284
Y0115824
X008636
Y0113284
Y0110744
Y0108204
T04
X0082296Y0074676
X0084836
X00762Y0067564
X007366
X007112
X0057912Y0068834
X0055372
Y00762
Y007874
X0039116Y0095377
X0036576
X0034036
X0037465Y0100076
Y0102616
X0041656Y0095377
X0068072Y0098044
X0070612
X0085852Y0092964
Y0090424
X0044196Y011938
X0041656
X0039116
T05
X0094234Y0067818
X0034036Y0068072
X0033274Y011811
X0094488Y0118364
M30
